<?xml version="1.0" encoding="UTF-8"?>
<!DOCTYPE svg PUBLIC "-//W3C//DTD SVG 1.1//EN" "http://www.w3.org/Graphics/SVG/1.1/DTD/svg11.dtd">
<!-- Creator: CorelDRAW 2019 (64-Bit) -->
<svg xmlns="http://www.w3.org/2000/svg" xml:space="preserve" width="32px" height="32px" version="1.1" style="shape-rendering:geometricPrecision; text-rendering:geometricPrecision; image-rendering:optimizeQuality; fill-rule:evenodd; clip-rule:evenodd"
viewBox="0 0 32 32"
 xmlns:xlink="http://www.w3.org/1999/xlink">
 <defs>
  <style type="text/css">
   <![CDATA[
    .fil0 {fill:#E3B710}
    .fil1 {fill:black}
   ]]>
  </style>
 </defs>
 <g id="Слой_x0020_1">
  <metadata id="CorelCorpID_0Corel-Layer"/>
  <rect class="fil0" x="-0.01" width="32" height="31.99" rx="8.25" ry="8.27"/>
  <path class="fil1" d="M10.16 15.77c0,2.93 0.26,3.99 2.02,5.31 2.73,2.05 5.57,1.23 8.06,-0.73 2.56,-2.01 4.61,-4.28 7.33,-2.98 -0.67,1.01 -3.63,3.43 -4.81,4.36 -1.87,1.45 -3.22,2.81 -6.42,2.98 -3.87,0.21 -6.66,-2.3 -9.34,-4.64l-2.57 -2.24c1.64,0.14 1.8,0.51 3.26,-0.4 0.97,-0.6 1.41,-1.1 2.47,-1.66zm7.33 9.39l-1.35 0c-3.25,-0.01 -4.51,-0.25 -8.09,-3.38 -0.53,-0.46 -0.87,-0.7 -1.38,-1.15 -1.32,-1.15 -2.63,-2.09 -3.84,-3.48 0.71,-1.07 1.72,-1.72 2.69,-2.58 3.06,-2.73 6.13,-5.67 10.14,-5.67 3.9,0 5.3,1.44 7.56,3.21 1.55,1.21 4.45,3.47 5.49,5.04 -2.37,2.73 -4.83,4.54 -7.71,6.71 -0.8,0.6 -2.23,1.3 -3.51,1.3zm-1.15 -3.66c-3.52,0 -5.49,-1.27 -5.49,-5.04 0,-3.53 6.83,-5.85 9.45,-1.43 1.96,3.31 -1.33,6.47 -3.96,6.47zm-6.18 -5.73l0 0zm-4.12 1.6c-1,0 -1.33,-0.1 -2.07,-0.45 0.82,-1.22 6.02,-5.29 7.46,-6.29 1.66,-1.14 3.19,-1.04 5.14,-1.04 3.81,0 7.99,4.46 10.77,6.87 -2.54,0 -2.05,-0.7 -4.55,1.18 -0.51,0.39 -0.85,0.58 -1.41,0.88 0.08,-0.91 0.23,-0.55 0.23,-1.15 0,-2.75 -2.38,-5.26 -5.04,-5.26 -3.86,0 -3.27,0.25 -6.15,2.55 -0.77,0.61 -3.35,2.71 -4.38,2.71z"/>
 </g>
</svg>
